<svg width="37" height="42" viewBox="0 0 37 42" fill="none" xmlns="http://www.w3.org/2000/svg">
<circle cx="18.0822" cy="3.08219" r="1.58219" stroke="#000050" stroke-width="3"/>
<path d="M13 37C13 41 24 41 24 37" stroke="#000050" stroke-width="3"/>
<path d="M18 36.2255H28.8611C35.3777 36.2255 34.5068 34.7681 34.5068 33.863C27.9902 31.6908 28.8611 27.7006 28.8611 26.7955V14.5034C28.8611 10.4305 27.818 9.1804 26.1458 7.71526C23.3312 5.24921 19.3576 5 18 5" stroke="#000050" stroke-width="3"/>
<path d="M18.5456 36.2255H7.68451C1.16787 36.2255 2.03873 34.7681 2.03873 33.863C8.55536 31.6908 7.68451 27.7006 7.68451 26.7955V14.5034C7.68451 10.4305 8.72754 9.1804 10.3998 7.71526C13.2144 5.24921 17.1879 5 18.5456 5" stroke="#000050" stroke-width="3"/>
</svg>
