<svg width="557" height="96" viewBox="0 0 557 96" fill="none" xmlns="http://www.w3.org/2000/svg">
<path d="M52.744 94.536L41.608 70.216C38.792 64.1573 35.2507 59.848 30.984 57.288C26.7174 54.728 21.256 53.448 14.6 53.448H12.68V93H0.52002V3.656C5.12802 3.22933 9.43735 2.93066 13.448 2.75999C17.544 2.504 21.9814 2.376 26.76 2.376C32.2214 2.376 37 2.97333 41.096 4.168C45.192 5.27733 48.6054 6.89866 51.336 9.032C54.0667 11.1653 56.1147 13.6827 57.48 16.584C58.9307 19.4853 59.656 22.6853 59.656 26.184C59.656 32.4133 57.7787 37.448 54.024 41.288C50.3547 45.0427 45.0214 47.8587 38.024 49.736C39.7307 50.504 41.3094 51.4 42.76 52.424C44.2107 53.3627 45.576 54.5573 46.856 56.008C48.136 57.3733 49.3734 59.0373 50.568 61C51.848 62.9627 53.128 65.352 54.408 68.168L64.136 89.16L52.744 94.536ZM26.76 12.616C23.8587 12.616 21.256 12.6587 18.952 12.744C16.648 12.8293 14.5574 12.9573 12.68 13.128V43.208H26.76C32.904 43.208 37.896 41.8427 41.736 39.112C45.576 36.3813 47.496 32.456 47.496 27.336C47.496 23.0693 45.704 19.5707 42.12 16.84C38.536 14.024 33.416 12.616 26.76 12.616Z" fill="#000050"/>
<path d="M79.52 3.39999H133.28V13.896H91.68V41.16H127.52V51.4H91.68V82.504H133.28V93H79.52V3.39999Z" fill="#000050"/>
<path d="M176.16 32.38C176.16 31.54 176.04 30.78 175.8 30.1C175.56 29.38 175.12 28.66 174.48 27.94C173.84 27.22 172.98 26.48 171.9 25.72C170.86 24.92 169.5 24.06 167.82 23.14C166.26 22.26 164.94 21.4 163.86 20.56C162.78 19.72 161.88 18.84 161.16 17.92C160.48 17 159.98 16 159.66 14.92C159.38 13.84 159.24 12.64 159.24 11.32C159.24 9.64 159.58 8.12 160.26 6.76C160.94 5.4 161.9 4.24 163.14 3.28C164.38 2.32 165.86 1.58 167.58 1.06C169.3 0.539998 171.2 0.279999 173.28 0.279999C175.8 0.279999 178.06 0.599998 180.06 1.24C182.1 1.84 184.02 2.66 185.82 3.7L182.88 8.38C181.44 7.46 179.92 6.7 178.32 6.1C176.76 5.5 174.92 5.2 172.8 5.2C170.4 5.2 168.48 5.72 167.04 6.76C165.64 7.76 164.94 9.08 164.94 10.72C164.94 11.48 165.06 12.18 165.3 12.82C165.54 13.46 165.92 14.08 166.44 14.68C167 15.28 167.74 15.9 168.66 16.54C169.58 17.18 170.74 17.86 172.14 18.58C174.1 19.62 175.72 20.66 177 21.7C178.28 22.7 179.28 23.72 180 24.76C180.76 25.8 181.28 26.9 181.56 28.06C181.84 29.22 181.98 30.48 181.98 31.84C181.98 33.68 181.62 35.34 180.9 36.82C180.18 38.3 179.16 39.56 177.84 40.6C176.52 41.6 174.94 42.38 173.1 42.94C171.26 43.46 169.24 43.72 167.04 43.72C164.16 43.72 161.56 43.34 159.24 42.58C156.92 41.78 154.88 40.68 153.12 39.28L156.84 34.66C158.2 35.9 159.78 36.9 161.58 37.66C163.42 38.38 165.44 38.74 167.64 38.74C170.24 38.74 172.3 38.18 173.82 37.06C175.38 35.9 176.16 34.34 176.16 32.38Z" fill="#000050"/>
<path d="M210.304 5.2C207.744 5.2 205.444 5.76 203.404 6.88C201.404 7.96 199.704 9.42 198.304 11.26C196.904 13.1 195.824 15.22 195.064 17.62C194.344 19.98 193.984 22.42 193.984 24.94C193.984 26.86 194.244 28.66 194.764 30.34C195.284 32.02 196.044 33.5 197.044 34.78C198.084 36.02 199.364 37 200.884 37.72C202.404 38.44 204.164 38.8 206.164 38.8C208.724 38.8 211.004 38.26 213.004 37.18C215.044 36.06 216.764 34.58 218.164 32.74C219.564 30.9 220.624 28.8 221.344 26.44C222.104 24.04 222.484 21.58 222.484 19.06C222.484 17.14 222.224 15.34 221.704 13.66C221.184 11.98 220.404 10.52 219.364 9.28C218.364 8 217.104 7 215.584 6.28C214.064 5.56 212.304 5.2 210.304 5.2ZM205.684 43.72C202.844 43.72 200.344 43.24 198.184 42.28C196.024 41.32 194.184 40.02 192.664 38.38C191.184 36.74 190.064 34.8 189.304 32.56C188.544 30.32 188.164 27.9 188.164 25.3C188.164 22.1 188.664 19 189.664 16C190.704 13 192.184 10.34 194.104 8.02C196.024 5.66 198.384 3.78 201.184 2.38C203.984 0.979998 207.184 0.279999 210.784 0.279999C213.584 0.279999 216.064 0.759999 218.224 1.72C220.424 2.68 222.264 3.98 223.744 5.62C225.264 7.26 226.404 9.22 227.164 11.5C227.924 13.74 228.304 16.14 228.304 18.7C228.304 21.9 227.784 25 226.744 28C225.744 31 224.284 33.68 222.364 36.04C220.444 38.36 218.084 40.22 215.284 41.62C212.484 43.02 209.284 43.72 205.684 43.72Z" fill="#000050"/>
<path d="M264.741 43.3C262.501 43.3 260.801 42.78 259.641 41.74C258.521 40.7 257.961 39.04 257.961 36.76V35.44C256.321 37.96 254.421 39.98 252.261 41.5C250.101 42.98 247.541 43.72 244.581 43.72C243.061 43.72 241.621 43.48 240.261 43C238.901 42.48 237.701 41.74 236.661 40.78C235.661 39.78 234.861 38.56 234.261 37.12C233.661 35.68 233.361 34.02 233.361 32.14C233.361 31.22 233.401 30.38 233.481 29.62C233.561 28.82 233.681 27.94 233.841 26.98L238.281 0.999997H243.981L239.361 28.24C239.241 28.96 239.161 29.58 239.121 30.1C239.081 30.58 239.061 31.12 239.061 31.72C239.061 33.88 239.701 35.6 240.981 36.88C242.261 38.12 244.001 38.74 246.201 38.74C247.561 38.74 248.941 38.42 250.341 37.78C251.741 37.14 253.041 36.22 254.241 35.02C255.441 33.78 256.481 32.26 257.361 30.46C258.281 28.66 258.941 26.6 259.341 24.28L263.481 0.999997H269.181L263.301 34.24C263.261 34.44 263.221 34.68 263.181 34.96C263.181 35.2 263.181 35.46 263.181 35.74C263.181 36.82 263.481 37.6 264.081 38.08C264.721 38.56 265.601 38.8 266.721 38.8L264.741 43.3Z" fill="#000050"/>
<path d="M280.32 1.6C282.12 1.28 283.8 1.02 285.36 0.819999C286.96 0.619999 288.82 0.519999 290.94 0.519999C293.22 0.519999 295.22 0.799999 296.94 1.36C298.701 1.92 300.18 2.68 301.38 3.64C302.581 4.6 303.48 5.74 304.08 7.06C304.68 8.34 304.98 9.72 304.98 11.2C304.98 13 304.66 14.58 304.02 15.94C303.42 17.3 302.56 18.46 301.44 19.42C300.361 20.38 299.04 21.16 297.48 21.76C295.921 22.32 294.201 22.74 292.32 23.02C293.961 23.78 295.24 24.68 296.16 25.72C297.081 26.76 297.801 27.86 298.32 29.02C298.84 30.14 299.26 31.28 299.58 32.44C299.9 33.56 300.28 34.58 300.72 35.5C301.16 36.38 301.74 37.1 302.46 37.66C303.18 38.22 304.2 38.5 305.52 38.5L303.421 43.42C301.341 43.42 299.74 42.96 298.62 42.04C297.5 41.12 296.58 39.96 295.86 38.56C295.18 37.16 294.56 35.66 294 34.06C293.48 32.46 292.76 30.96 291.84 29.56C290.96 28.16 289.76 27 288.24 26.08C286.72 25.16 284.62 24.7 281.94 24.7L278.701 43H273L280.32 1.6ZM290.58 5.26C289.54 5.26 288.581 5.3 287.701 5.38C286.861 5.46 286.06 5.58 285.3 5.74L282.78 19.9H287.76C291.28 19.9 294.081 19.18 296.16 17.74C298.28 16.3 299.34 14.36 299.34 11.92C299.34 9.96 298.56 8.36 297 7.12C295.48 5.88 293.34 5.26 290.58 5.26Z" fill="#000050"/>
<path d="M331.52 5.26C329.32 5.26 327.26 5.76 325.34 6.76C323.46 7.76 321.8 9.16 320.36 10.96C318.96 12.76 317.86 14.9 317.06 17.38C316.26 19.82 315.86 22.5 315.86 25.42C315.86 27.58 316.14 29.5 316.7 31.18C317.26 32.82 318.04 34.2 319.04 35.32C320.04 36.44 321.22 37.3 322.58 37.9C323.98 38.46 325.5 38.74 327.14 38.74C329.02 38.74 330.68 38.48 332.12 37.96C333.6 37.44 335.04 36.82 336.44 36.1L337.4 41.26C335.92 41.94 334.28 42.52 332.48 43C330.68 43.48 328.64 43.72 326.36 43.72C323.88 43.72 321.64 43.32 319.64 42.52C317.64 41.72 315.92 40.56 314.48 39.04C313.04 37.52 311.92 35.66 311.12 33.46C310.36 31.22 309.98 28.68 309.98 25.84C309.98 22.24 310.52 18.88 311.6 15.76C312.68 12.64 314.18 9.94 316.1 7.66C318.06 5.38 320.38 3.58 323.06 2.26C325.78 0.939999 328.76 0.279999 332 0.279999C334.4 0.279999 336.48 0.599998 338.24 1.24C340.04 1.88 341.54 2.54 342.74 3.22L340.16 7.9C338.96 7.14 337.7 6.52 336.38 6.04C335.06 5.52 333.44 5.26 331.52 5.26Z" fill="#000050"/>
<path d="M350.634 0.999997H375.534L374.694 5.92H355.434L353.214 18.7H369.714L368.874 23.5H352.374L349.794 38.08H368.994L368.154 43H343.254L350.634 0.999997Z" fill="#000050"/>
<path d="M396.414 32.38C396.414 31.54 396.294 30.78 396.054 30.1C395.814 29.38 395.374 28.66 394.734 27.94C394.094 27.22 393.234 26.48 392.154 25.72C391.114 24.92 389.754 24.06 388.074 23.14C386.514 22.26 385.194 21.4 384.114 20.56C383.034 19.72 382.134 18.84 381.414 17.92C380.734 17 380.234 16 379.914 14.92C379.634 13.84 379.494 12.64 379.494 11.32C379.494 9.64 379.834 8.12 380.514 6.76C381.194 5.4 382.154 4.24 383.394 3.28C384.634 2.32 386.114 1.58 387.834 1.06C389.554 0.539998 391.454 0.279999 393.534 0.279999C396.054 0.279999 398.314 0.599998 400.314 1.24C402.354 1.84 404.274 2.66 406.074 3.7L403.134 8.38C401.694 7.46 400.174 6.7 398.574 6.1C397.014 5.5 395.174 5.2 393.054 5.2C390.654 5.2 388.734 5.72 387.294 6.76C385.894 7.76 385.194 9.08 385.194 10.72C385.194 11.48 385.314 12.18 385.554 12.82C385.794 13.46 386.174 14.08 386.694 14.68C387.254 15.28 387.994 15.9 388.914 16.54C389.834 17.18 390.994 17.86 392.394 18.58C394.354 19.62 395.974 20.66 397.254 21.7C398.534 22.7 399.534 23.72 400.254 24.76C401.014 25.8 401.534 26.9 401.814 28.06C402.094 29.22 402.234 30.48 402.234 31.84C402.234 33.68 401.874 35.34 401.154 36.82C400.434 38.3 399.414 39.56 398.094 40.6C396.774 41.6 395.194 42.38 393.354 42.94C391.514 43.46 389.494 43.72 387.294 43.72C384.414 43.72 381.814 43.34 379.494 42.58C377.174 41.78 375.134 40.68 373.374 39.28L377.094 34.66C378.454 35.9 380.034 36.9 381.834 37.66C383.674 38.38 385.694 38.74 387.894 38.74C390.494 38.74 392.554 38.18 394.074 37.06C395.634 35.9 396.414 34.34 396.414 32.38Z" fill="#000050"/>
<path d="M162.9 53H168.6L162.12 89.9H181.38L180.48 95H155.52L162.9 53Z" fill="#000050"/>
<path d="M181.906 92.78L204.946 53H211.366L220.546 94.34L215.086 95.6L212.566 83.6H193.126L186.466 95.48L181.906 92.78ZM195.826 78.8H211.546L207.286 58.58L195.826 78.8Z" fill="#000050"/>
<path d="M224.672 53H256.172L255.272 58.04H242.372L235.892 95H230.192L236.672 58.04H223.772L224.672 53Z" fill="#000050"/>
<path d="M254.895 95L262.275 53H267.975L260.595 95H254.895Z" fill="#000050"/>
<path d="M293.683 57.2C291.123 57.2 288.823 57.76 286.783 58.88C284.783 59.96 283.083 61.42 281.683 63.26C280.283 65.1 279.203 67.22 278.443 69.62C277.723 71.98 277.363 74.42 277.363 76.94C277.363 78.86 277.623 80.66 278.143 82.34C278.663 84.02 279.423 85.5 280.423 86.78C281.463 88.02 282.743 89 284.263 89.72C285.783 90.44 287.543 90.8 289.543 90.8C292.103 90.8 294.383 90.26 296.383 89.18C298.423 88.06 300.143 86.58 301.543 84.74C302.943 82.9 304.003 80.8 304.723 78.44C305.483 76.04 305.863 73.58 305.863 71.06C305.863 69.14 305.603 67.34 305.083 65.66C304.563 63.98 303.783 62.52 302.743 61.28C301.743 60 300.483 59 298.963 58.28C297.443 57.56 295.683 57.2 293.683 57.2ZM289.063 95.72C286.223 95.72 283.723 95.24 281.563 94.28C279.403 93.32 277.563 92.02 276.043 90.38C274.563 88.74 273.443 86.8 272.683 84.56C271.923 82.32 271.543 79.9 271.543 77.3C271.543 74.1 272.043 71 273.043 68C274.083 65 275.563 62.34 277.483 60.02C279.403 57.66 281.763 55.78 284.563 54.38C287.363 52.98 290.563 52.28 294.163 52.28C296.963 52.28 299.443 52.76 301.603 53.72C303.803 54.68 305.643 55.98 307.123 57.62C308.643 59.26 309.783 61.22 310.543 63.5C311.303 65.74 311.683 68.14 311.683 70.7C311.683 73.9 311.163 77 310.123 80C309.123 83 307.663 85.68 305.743 88.04C303.823 90.36 301.463 92.22 298.663 93.62C295.863 95.02 292.663 95.72 289.063 95.72Z" fill="#000050"/>
<path d="M327.06 59.96L320.94 95H315.54L322.92 53H330.48L342.78 88.28L349.02 53H354.42L347.04 95H339.6L327.06 59.96Z" fill="#000050"/>
<path d="M369.188 59.96L363.068 95H357.668L365.048 53H372.608L384.908 88.28L391.148 53H396.548L389.168 95H381.728L369.188 59.96Z" fill="#000050"/>
<path d="M407.177 53H432.077L431.237 57.92H411.977L409.757 70.7H426.257L425.417 75.5H408.917L406.337 90.08H425.537L424.697 95H399.797L407.177 53Z" fill="#000050"/>
<path d="M439.697 53H445.397L438.917 89.9H458.177L457.277 95H432.317L439.697 53Z" fill="#000050"/>
<path d="M470.283 53H475.983L469.503 89.9H488.763L487.863 95H462.903L470.283 53Z" fill="#000050"/>
<path d="M500.869 53H525.769L524.929 57.92H505.669L503.449 70.7H519.949L519.109 75.5H502.609L500.029 90.08H519.229L518.389 95H493.489L500.869 53Z" fill="#000050"/>
<path d="M546.648 84.38C546.648 83.54 546.528 82.78 546.288 82.1C546.048 81.38 545.608 80.66 544.968 79.94C544.328 79.22 543.468 78.48 542.388 77.72C541.348 76.92 539.988 76.06 538.308 75.14C536.748 74.26 535.428 73.4 534.348 72.56C533.268 71.72 532.368 70.84 531.648 69.92C530.968 69 530.468 68 530.148 66.92C529.868 65.84 529.728 64.64 529.728 63.32C529.728 61.64 530.068 60.12 530.748 58.76C531.428 57.4 532.388 56.24 533.628 55.28C534.868 54.32 536.348 53.58 538.068 53.06C539.788 52.54 541.688 52.28 543.768 52.28C546.288 52.28 548.548 52.6 550.548 53.24C552.588 53.84 554.508 54.66 556.308 55.7L553.368 60.38C551.928 59.46 550.408 58.7 548.808 58.1C547.248 57.5 545.408 57.2 543.288 57.2C540.888 57.2 538.968 57.72 537.528 58.76C536.128 59.76 535.428 61.08 535.428 62.72C535.428 63.48 535.548 64.18 535.788 64.82C536.028 65.46 536.408 66.08 536.928 66.68C537.488 67.28 538.228 67.9 539.148 68.54C540.068 69.18 541.228 69.86 542.628 70.58C544.588 71.62 546.208 72.66 547.488 73.7C548.768 74.7 549.768 75.72 550.488 76.76C551.248 77.8 551.768 78.9 552.048 80.06C552.328 81.22 552.468 82.48 552.468 83.84C552.468 85.68 552.108 87.34 551.388 88.82C550.668 90.3 549.648 91.56 548.328 92.6C547.008 93.6 545.428 94.38 543.588 94.94C541.748 95.46 539.728 95.72 537.528 95.72C534.648 95.72 532.048 95.34 529.728 94.58C527.408 93.78 525.368 92.68 523.608 91.28L527.328 86.66C528.688 87.9 530.268 88.9 532.068 89.66C533.908 90.38 535.928 90.74 538.128 90.74C540.728 90.74 542.788 90.18 544.308 89.06C545.868 87.9 546.648 86.34 546.648 84.38Z" fill="#000050"/>
</svg>
