<svg width="133" height="93" viewBox="0 0 133 93" fill="none" xmlns="http://www.w3.org/2000/svg">
<path d="M52.224 92.16L41.088 67.84C38.272 61.7813 34.7307 57.472 30.464 54.912C26.1973 52.352 20.736 51.072 14.08 51.072H12.16V90.624H0V1.28C4.608 0.853333 8.91733 0.554665 12.928 0.383995C17.024 0.127998 21.4613 0 26.24 0C31.7013 0 36.48 0.597333 40.576 1.792C44.672 2.90133 48.0853 4.52266 50.816 6.656C53.5467 8.78933 55.5947 11.3067 56.96 14.208C58.4107 17.1093 59.136 20.3093 59.136 23.808C59.136 30.0373 57.2587 35.072 53.504 38.912C49.8347 42.6667 44.5013 45.4827 37.504 47.36C39.2107 48.128 40.7893 49.024 42.24 50.048C43.6907 50.9867 45.056 52.1813 46.336 53.632C47.616 54.9973 48.8533 56.6613 50.048 58.624C51.328 60.5867 52.608 62.976 53.888 65.792L63.616 86.784L52.224 92.16ZM26.24 10.24C23.3387 10.24 20.736 10.2827 18.432 10.368C16.128 10.4533 14.0373 10.5813 12.16 10.752V40.832H26.24C32.384 40.832 37.376 39.4667 41.216 36.736C45.056 34.0053 46.976 30.08 46.976 24.96C46.976 20.6933 45.184 17.1947 41.6 14.464C38.016 11.648 32.896 10.24 26.24 10.24Z" fill="#008485"/>
<path d="M79 1.02399H132.76V11.52H91.16V38.784H127V49.024H91.16V80.128H132.76V90.624H79V45.824V1.02399Z" fill="#008485"/>
</svg>
